<?xml version="1.0" encoding="UTF-8" standalone="no"?>
<svg
   data-name="Layer 1"
   id="Layer_1"
   viewBox="0 0 256 256"
   version="1.1"
   sodipodi:docname="logo.svg"
   inkscape:version="1.2.2 (b0a8486541, 2022-12-01)"
   xmlns:inkscape="http://www.inkscape.org/namespaces/inkscape"
   xmlns:sodipodi="http://sodipodi.sourceforge.net/DTD/sodipodi-0.dtd"
   xmlns="http://www.w3.org/2000/svg"
   xmlns:svg="http://www.w3.org/2000/svg">
  <sodipodi:namedview
     id="namedview69"
     pagecolor="#505050"
     bordercolor="#ffffff"
     borderopacity="1"
     inkscape:showpageshadow="0"
     inkscape:pageopacity="0"
     inkscape:pagecheckerboard="1"
     inkscape:deskcolor="#505050"
     showgrid="false"
     inkscape:zoom="3.390625"
     inkscape:cx="87.152074"
     inkscape:cy="114.72811"
     inkscape:window-width="1920"
     inkscape:window-height="1044"
     inkscape:window-x="0"
     inkscape:window-y="0"
     inkscape:window-maximized="1"
     inkscape:current-layer="Layer_1" />
  <defs
     id="defs4">
    <style
       id="style2">.cls-1{fill:#14854F;}.cls-2{fill:#e7891c;}.cls-3{fill:#af6715;}.cls-4{fill:#0c6e3f;}.cls-5{fill:#d2d6dd;}.cls-6{fill:#747681;}.cls-7{fill:#263238;}</style>
  </defs>
  <title
     id="title6" />
  <path
     class="cls-1"
     d="M 12.978752,203.89 H 247.48979 l -18.95388,-54 H 31.932635 Z m 139.650008,-8 a 2.0358628,2 0 0 1 -2.03586,2 h -20.35863 a 2.0358628,2 0 0 1 0,-4 h 20.35863 a 2.0358628,2 0 0 1 2.03586,2 z m -52.932432,-2 h 20.358632 a 2.0358628,2 0 1 1 0,4 H 99.696328 a 2.0358628,2 0 0 1 0,-4 z"
     id="path8"
     style="stroke-width:1.00893" />
  <path
     class="cls-2"
     d="m 11.398563,215.89 a 8.1727305,8 0 0 0 8.172731,8 H 235.12706 a 8.1727305,8 0 0 0 8.17273,-8 v -8 H 11.398563 Z"
     id="path10"
     style="stroke-width:1.01074" />
  <path
     class="cls-3"
     d="m 238.29979,207.89 v 8 a 8,8 0 0 1 -8,8 h 5 a 8,8 0 0 0 8,-8 v -8 z"
     id="path12" />
  <path
     class="cls-1"
     d="m 48,125.94 h 6.16 v -3.37 c 0,-7 4.05,-13.91 12.31,-17.07 -2.66,-2.63 -4.31,-5.51 -4.31,-9.55 a 12.68,12.68 0 0 1 25.36,0 c 0,4.07 -1.68,6.94 -4.31,9.55 8.27,3.17 12.31,10.1 12.31,17.07 v 3.37 h 6.16 V 72.28 H 48 Z"
     id="path14" />
  <rect
     class="cls-4"
     height="53.66"
     width="6.6606603"
     x="97.660004"
     y="72.279999"
     id="rect16"
     style="stroke-width:1.29041" />
  <path
     class="cls-5"
     d="m 75.78,104.59 v 0 a 8.69,8.69 0 1 0 -1.89,0 z"
     id="path18" />
  <path
     class="cls-5"
     d="M 32.378852,145.89 H 224 V 52.34 H 32.378852 Z m 92.900388,-19.94 h 59.7817 a 2.049424,2 0 1 1 0,4 h -59.7817 a 2.049424,2 0 0 1 0,-4 z m 0,-18.44 h 80.27594 a 2.049424,2 0 0 1 0,4 h -80.27594 a 2.049424,2 0 0 1 0,-4 z m 80.27594,-14.45 h -80.27594 a 2.049424,2 0 0 1 0,-4 h 80.27594 a 2.049424,2 0 0 1 0,4 z m 0,-18.44 h -59.7817 a 2.049424,2 0 0 1 0,-4 h 59.7817 a 2.049424,2 0 0 1 0,4 z m -98.72075,-4.34 v 57.66 a 2.049424,2 0 0 1 -2.04943,2 H 45.700109 a 2.049424,2 0 0 1 -2.049425,-2 V 70.28 a 2.049424,2 0 0 1 2.049425,-2 H 104.785 a 2.049424,2 0 0 1 2.04943,2 z"
     id="path20"
     style="stroke-width:1.01228" />
  <path
     class="cls-1"
     d="m 224,40.11 a 8.2456235,8 0 0 0 -8.24562,-8 H 39.504174 a 8.2456235,8 0 0 0 -8.245623,8 v 8.22 H 224 Z"
     id="path22"
     style="stroke-width:1.01524" />
  <path
     class="cls-4"
     d="M216,32.11h-5a8,8,0,0,1,8,8v8.22h5V40.11A8,8,0,0,0,216,32.11Z"
     id="path24" />
  <polygon
     class="cls-4"
     points="219.57,149.89 238.19,203.89 248.19,203.89 229.57,149.89 "
     id="polygon26"
     transform="translate(-0.70020881)" />
  <rect
     class="cls-6"
     height="93.55"
     width="5"
     x="219"
     y="52.34"
     id="rect28" />
  <path
     class="cls-5"
     d="m 77.51,108.59 h -5.36 a 14,14 0 0 0 -14,14 v 3.37 h 33.36 v -3.37 a 14,14 0 0 0 -14,-14 z"
     id="path30" />
  <path
     class="cls-6"
     d="m 74.83,87.28 a 8.64,8.64 0 0 0 -2,0.24 8.67,8.67 0 0 1 0,16.87 8.89,8.89 0 0 0 1.07,0.19 h 1.9 a 8.68,8.68 0 0 0 -1,-17.3 z"
     id="path32" />
  <path
     class="cls-6"
     d="m 77.51,108.59 h -4 a 14,14 0 0 1 14,14 v 3.37 h 4 v -3.37 a 14,14 0 0 0 -14,-14 z"
     id="path34" />
  <path
     class="cls-7"
     d="M 104.73559,67.78 H 46.044697 A 2.5446969,2.5 0 0 0 43.5,70.28 v 57.66 a 2.5446969,2.5 0 0 0 2.544697,2.5 h 58.690893 a 2.5446969,2.5 0 0 0 2.54469,-2.5 V 70.28 a 2.5446969,2.5 0 0 0 -2.54469,-2.5 z m -12.886348,57.66 h -32.9182 v -2.87 a 13.751542,13.51 0 0 1 13.731185,-13.49 h 5.466009 a 13.751542,13.51 0 0 1 13.721006,13.5 z M 67.063894,96 a 8.3262483,8.18 0 1 1 9.252518,8.12 h -1.85254 A 8.3364271,8.19 0 0 1 67.063894,96 Z m 35.126996,29.48 h -5.252255 v -2.87 a 18.840936,18.51 0 0 0 -12.112757,-17.29 13.415642,13.18 0 1 0 -18.871472,0 18.840936,18.51 0 0 0 -12.122936,17.26 v 2.87 H 48.589394 V 72.78 h 53.601496 z"
     id="path36"
     style="stroke-width:1.0089" />
  <path
     class="cls-7"
     d="m 248.47,205.55 a 2.47,2.47 0 0 0 -0.08,-0.36 c 0,0 0,-0.08 0,-0.11 l -19.86,-57.6 V 40.11 A 12.51,12.51 0 0 0 216,27.61 H 40 a 12.51,12.51 0 0 0 -12.5,12.5 v 107.36 l -19.86,57.6 c 0,0 0,0.08 0,0.11 a 2.47,2.47 0 0 0 -0.08,0.36 c 0,0.07 0,0.14 0,0.21 0,0.07 0,0.09 0,0.13 v 10 A 12.51,12.51 0 0 0 20,228.39 h 216 a 12.51,12.51 0 0 0 12.5,-12.5 v -10 c 0,0 0,-0.09 0,-0.13 0,-0.04 -0.02,-0.14 -0.03,-0.21 z M 32.5,40.11 a 7.51,7.51 0 0 1 7.5,-7.5 h 176 a 7.51,7.51 0 0 1 7.5,7.5 v 7.72 h -191 z m 0,12.72 h 191 v 92.55 h -191 z m -0.72,97.55 h 192.44 l 18.28,53 h -229 z m 211.72,65.5 a 7.51,7.51 0 0 1 -7.5,7.5 H 20 a 7.51,7.51 0 0 1 -7.5,-7.5 v -7.5 h 231 z"
     id="path38" />
  <path
     class="cls-7"
     d="M 119.9,193.39 H 99.1 a 2.6,2.5 0 0 0 0,5 h 20.8 a 2.6,2.5 0 1 0 0,-5 z"
     id="path40"
     style="stroke-width:1.0198" />
  <path
     class="cls-7"
     d="m 149.9,193.39 h -20.8 a 2.6,2.5 0 0 0 0,5 h 20.8 a 2.6,2.5 0 0 0 0,-5 z"
     id="path42"
     style="stroke-width:1.0198" />
  <path
     class="cls-7"
     d="M206,70.12H147.66a2.5,2.5,0,0,0,0,5H206a2.5,2.5,0,0,0,0-5Z"
     id="path44" />
  <path
     class="cls-7"
     d="M206,88.56H127.66a2.5,2.5,0,0,0,0,5H206a2.5,2.5,0,0,0,0-5Z"
     id="path46" />
  <path
     class="cls-7"
     d="M206,107H127.66a2.5,2.5,0,0,0,0,5H206a2.5,2.5,0,0,0,0-5Z"
     id="path48" />
  <path
     class="cls-7"
     d="M186,125.44H127.66a2.5,2.5,0,0,0,0,5H186a2.5,2.5,0,0,0,0-5Z"
     id="path50" />
</svg>
